<svg width="43.828mm" height="42.254mm" version="1.1" viewBox="0 0 43.828 42.254" xml:space="preserve" xmlns="http://www.w3.org/2000/svg"><g transform="translate(-209.48 -.84373)" stroke="#000000" stroke-linecap="round" stroke-linejoin="round" stroke-width="1.9"><path d="m216.71 42.139c-1.3797-7.815-5.0906-24.778-3.4151-23.443 3.4311 2.7352 7.4788 11.171 8.9719 10.187 2.2234-1.4649 6.1078-18.475 8.1615-17.828 2.9845 0.94073 7.3091 16.118 9.435 16.034 2.5161-0.09998 8.7211-12.178 9.9559-11.229 3.3815 2.5967-1.968 25.932-1.968 25.932-11.433-5.5984-21.284 0.62454-31.141 0.3473z" fill="#ffff00"/><g fill="#000000"><path d="m211.93 16.617c1.8558-1.0058 1.3991-5.1455 0.32744-4.4204-2.2591 1.5286-2.4828 5.5885-0.32744 4.4204z"/><path d="m230.47 5.4163c1.8558-1.0058 0.66237-4.2451-0.40929-3.5199-2.2591 1.5286-1.7461 4.6881 0.40929 3.5199z"/><path d="m251.51 12.947c1.8558-1.0058 0.25307-3.9176-0.81859-3.1925-2.2591 1.5286-1.3368 4.3606 0.81859 3.1925z"/></g></g></svg>
