<svg width="62.2mm" height="38.024mm" version="1.1" viewBox="0 0 62.2 38.024" xml:space="preserve" xmlns="http://www.w3.org/2000/svg"><g transform="translate(-200.88 -11.932)" stroke="#000000" stroke-linecap="round" stroke-linejoin="round" stroke-width="1.9"><path d="m202.72 47.457c-4.4078-2.8857 8.6925-6.4847 14.883-13.067 11.162-11.869 2.0952-20.016 8.0036-19.729 5.7352 0.27888 16.624 12.437 21.276 19.84 3.4355 5.4676 16.807 5.0699 15.122 8.7456-0.64956 1.4167-7.489 1.4026-13.048 0.22827-15.663-2.1935-41.68 9.6401-46.236 3.982z" fill="#008000"/><path d="m238.77 37.194c2.1214-8.4152 8.7057-24.111 13.892-24.311 3.4602-0.13357 0.23614 8.2115-1.6207 17.596-0.80643 4.0758-8.6947 4.6456-12.271 6.7144z" fill="#ff0000"/></g></svg>
