<svg width="39.726mm" height="35.384mm" version="1.1" viewBox="0 0 39.726 35.384" xml:space="preserve" xmlns="http://www.w3.org/2000/svg" xmlns:xlink="http://www.w3.org/1999/xlink"><defs><radialGradient id="radialGradient16479" cx="233.93" cy="28.128" r="19.863" gradientTransform="matrix(1 0 0 .89071 0 3.0742)" gradientUnits="userSpaceOnUse"><stop stop-color="#a46031" offset="0"/><stop stop-color="#311a00" offset="1"/></radialGradient></defs><g transform="translate(-214.07 -10.436)" stroke="#000000" stroke-linecap="round" stroke-linejoin="round" stroke-width="1.9"><path d="m252.71 40.969c-0.78649 4.1478-10.201 3.3762-19.45 3.6134-8.2101 0.21056-16.224 0.94583-17.256-1.2502-1.4546-3.8566-1.6982-8.8575 2.0627-8.9252 2.4724-0.04448-3.6242-6.4363 5.4107-8.5149-2.2614-10.181 7.9634-6.1001 10.04-8.3573 3.0601-3.6587 0.0258-6.0501 0.84778-6.1288 2.6495-0.25374 11.278 2.4593 8.3342 13.171-0.44586 1.6224 3.5876 1.2623 4.4531 2.2641 2.5596 2.9625 1.9568 4.6173 0.97709 6.7152-0.40063 0.85783 1.9426 0.06694 3.0113 0.99191 1.5006 1.2988 1.9508 4.4059 1.5687 6.4207z" fill="url(#radialGradient16479)"/><g><ellipse cx="227.43" cy="34.127" rx="3.0099" ry="3.4151" fill="#ffffff"/><ellipse cx="238.65" cy="33.721" rx="3.0099" ry="3.4151" fill="#ffffff"/><path d="m226.96 33.258 0.52095 1.7365z" fill="#000000"/><path d="m239.06 32.791-0.6946 1.7944z" fill="#000000"/></g></g></svg>
