<svg width="58.87mm" height="44.139mm" version="1.1" viewBox="0 0 58.87 44.139" xml:space="preserve" xmlns="http://www.w3.org/2000/svg"><g transform="translate(-203.65 -6.8307)" stroke="#000000" stroke-linecap="round" stroke-linejoin="round"><path d="m205.67 45.492c-4.4078-2.8857 5.7456-4.5201 11.936-11.103 11.162-11.869 8.9713-26.892 14.88-26.605 5.7352 0.27888 9.748 19.313 14.4 26.716 3.4355 5.4676 17.219 6.7621 14.303 9.5642-8.3264 8.0031-45.349 7.3878-55.519 1.4271z" fill="#800080" stroke-width="1.9"/><path transform="matrix(.40665 0 0 .40665 171.09 -13.559)" d="m200.39 128.64-11.688-1.3601-7.7464 8.8571-2.3182-11.536-10.817-4.6303 10.255-5.7696 1.0609-11.719 8.6562 7.9702 11.473-2.6123-4.9052 10.695z" fill="#ffff00" stroke-width="2.2"/></g></svg>
